<svg width="443" height="461" viewBox="0 0 443 461" fill="none" xmlns="http://www.w3.org/2000/svg">
<g clip-path="url(#clip0_128_1714)">
<rect width="91.9802" height="88.5007" transform="matrix(-4.20578e-08 -1 -1 4.54299e-08 354.002 460.355)" stroke="url(#paint0_linear_128_1714)" stroke-width="2"/>
<rect width="91.9802" height="88.5007" transform="matrix(-4.20578e-08 -1 -1 4.54299e-08 177.002 460.355)" stroke="url(#paint1_linear_128_1714)" stroke-width="2"/>
<rect width="91.9802" height="88.5007" transform="matrix(-4.20578e-08 -1 -1 4.54299e-08 265.502 460.355)" stroke="url(#paint2_linear_128_1714)" stroke-width="2"/>
<rect width="91.9802" height="88.5007" transform="matrix(-4.20578e-08 -1 -1 4.54299e-08 88.501 460.355)" stroke="url(#paint3_linear_128_1714)" stroke-width="2"/>
<rect width="91.9802" height="88.5007" transform="matrix(-4.20578e-08 -1 -1 4.54299e-08 442.503 460.355)" stroke="url(#paint4_linear_128_1714)" stroke-width="2"/>
<rect width="91.9802" height="88.5007" transform="matrix(-4.20578e-08 -1 -1 4.54299e-08 354.003 368.375)" stroke="url(#paint5_linear_128_1714)" stroke-width="2"/>
<rect width="91.9802" height="88.5007" transform="matrix(-4.20578e-08 -1 -1 4.54299e-08 177.002 368.375)" stroke="url(#paint6_linear_128_1714)" stroke-width="2"/>
<rect width="91.9802" height="88.5007" transform="matrix(-4.20578e-08 -1 -1 4.54299e-08 265.502 368.375)" stroke="url(#paint7_linear_128_1714)" stroke-width="2"/>
<rect width="91.9802" height="88.5007" transform="matrix(-4.20578e-08 -1 -1 4.54299e-08 88.501 368.375)" stroke="url(#paint8_linear_128_1714)" stroke-width="2"/>
<rect width="91.9802" height="88.5007" transform="matrix(-4.20578e-08 -1 -1 4.54299e-08 442.503 368.375)" stroke="url(#paint9_linear_128_1714)" stroke-width="2"/>
<rect width="91.9802" height="88.5007" transform="matrix(-4.20578e-08 -1 -1 4.54299e-08 354.003 276.394)" stroke="url(#paint10_linear_128_1714)" stroke-width="2"/>
<rect width="91.9802" height="88.5007" transform="matrix(-4.20578e-08 -1 -1 4.54299e-08 177.002 276.394)" stroke="url(#paint11_linear_128_1714)" stroke-width="2"/>
<rect width="91.9802" height="88.5007" transform="matrix(-4.20578e-08 -1 -1 4.54299e-08 265.502 276.394)" stroke="url(#paint12_linear_128_1714)" stroke-width="2"/>
<rect width="91.9802" height="88.5007" transform="matrix(-4.20578e-08 -1 -1 4.54299e-08 88.501 276.394)" stroke="url(#paint13_linear_128_1714)" stroke-width="2"/>
<rect width="91.9802" height="88.5007" transform="matrix(-4.20578e-08 -1 -1 4.54299e-08 442.503 276.394)" stroke="url(#paint14_linear_128_1714)" stroke-width="2"/>
<rect width="91.9802" height="88.5007" transform="matrix(-4.20578e-08 -1 -1 4.54299e-08 354.003 184.415)" stroke="url(#paint15_linear_128_1714)" stroke-width="2"/>
<rect width="91.9802" height="88.5007" transform="matrix(-4.20578e-08 -1 -1 4.54299e-08 354.003 92.4341)" stroke="url(#paint16_linear_128_1714)" stroke-width="2"/>
<rect width="91.9802" height="88.5007" transform="matrix(-4.20578e-08 -1 -1 4.54299e-08 177.002 184.415)" stroke="url(#paint17_linear_128_1714)" stroke-width="2"/>
<rect width="91.9802" height="88.5007" transform="matrix(-4.20578e-08 -1 -1 4.54299e-08 265.502 184.415)" stroke="url(#paint18_linear_128_1714)" stroke-width="2"/>
<rect width="91.9802" height="88.5007" transform="matrix(-4.20578e-08 -1 -1 4.54299e-08 265.502 92.4341)" stroke="url(#paint19_linear_128_1714)" stroke-width="2"/>
<rect width="91.9802" height="88.5007" transform="matrix(-4.20578e-08 -1 -1 4.54299e-08 442.503 184.415)" stroke="url(#paint20_linear_128_1714)" stroke-width="2"/>
</g>
<defs>
<linearGradient id="paint0_linear_128_1714" x1="5.51032" y1="-4.57067" x2="93.6322" y2="-0.660221" gradientUnits="userSpaceOnUse">
<stop stop-color="#1A251F"/>
<stop offset="1" stop-color="#1B1227"/>
</linearGradient>
<linearGradient id="paint1_linear_128_1714" x1="5.51032" y1="-4.57067" x2="93.6322" y2="-0.660221" gradientUnits="userSpaceOnUse">
<stop stop-color="#1A251F"/>
<stop offset="1" stop-color="#1B1227"/>
</linearGradient>
<linearGradient id="paint2_linear_128_1714" x1="5.51032" y1="-4.57067" x2="93.6322" y2="-0.660221" gradientUnits="userSpaceOnUse">
<stop stop-color="#1A251F"/>
<stop offset="1" stop-color="#1B1227"/>
</linearGradient>
<linearGradient id="paint3_linear_128_1714" x1="5.51032" y1="-4.57067" x2="93.6322" y2="-0.660221" gradientUnits="userSpaceOnUse">
<stop stop-color="#1A251F"/>
<stop offset="1" stop-color="#1B1227"/>
</linearGradient>
<linearGradient id="paint4_linear_128_1714" x1="5.51032" y1="-4.57067" x2="93.6322" y2="-0.660221" gradientUnits="userSpaceOnUse">
<stop stop-color="#1A251F"/>
<stop offset="1" stop-color="#1B1227"/>
</linearGradient>
<linearGradient id="paint5_linear_128_1714" x1="5.51032" y1="-4.57067" x2="93.6322" y2="-0.660221" gradientUnits="userSpaceOnUse">
<stop stop-color="#1A251F"/>
<stop offset="1" stop-color="#1B1227"/>
</linearGradient>
<linearGradient id="paint6_linear_128_1714" x1="5.51032" y1="-4.57067" x2="93.6322" y2="-0.660221" gradientUnits="userSpaceOnUse">
<stop stop-color="#1A251F"/>
<stop offset="1" stop-color="#1B1227"/>
</linearGradient>
<linearGradient id="paint7_linear_128_1714" x1="5.51032" y1="-4.57067" x2="93.6322" y2="-0.660221" gradientUnits="userSpaceOnUse">
<stop stop-color="#1A251F"/>
<stop offset="1" stop-color="#1B1227"/>
</linearGradient>
<linearGradient id="paint8_linear_128_1714" x1="5.51032" y1="-4.57067" x2="93.6322" y2="-0.660221" gradientUnits="userSpaceOnUse">
<stop stop-color="#1A251F"/>
<stop offset="1" stop-color="#1B1227"/>
</linearGradient>
<linearGradient id="paint9_linear_128_1714" x1="5.51032" y1="-4.57067" x2="93.6322" y2="-0.660221" gradientUnits="userSpaceOnUse">
<stop stop-color="#1A251F"/>
<stop offset="1" stop-color="#1B1227"/>
</linearGradient>
<linearGradient id="paint10_linear_128_1714" x1="5.51032" y1="-4.57067" x2="93.6322" y2="-0.660221" gradientUnits="userSpaceOnUse">
<stop stop-color="#1A251F"/>
<stop offset="1" stop-color="#1B1227"/>
</linearGradient>
<linearGradient id="paint11_linear_128_1714" x1="5.51032" y1="-4.57067" x2="93.6322" y2="-0.660221" gradientUnits="userSpaceOnUse">
<stop stop-color="#1A251F"/>
<stop offset="1" stop-color="#1B1227"/>
</linearGradient>
<linearGradient id="paint12_linear_128_1714" x1="5.51032" y1="-4.57067" x2="93.6322" y2="-0.660221" gradientUnits="userSpaceOnUse">
<stop stop-color="#1A251F"/>
<stop offset="1" stop-color="#1B1227"/>
</linearGradient>
<linearGradient id="paint13_linear_128_1714" x1="5.51032" y1="-4.57067" x2="93.6322" y2="-0.660221" gradientUnits="userSpaceOnUse">
<stop stop-color="#1A251F"/>
<stop offset="1" stop-color="#1B1227"/>
</linearGradient>
<linearGradient id="paint14_linear_128_1714" x1="5.51032" y1="-4.57067" x2="93.6322" y2="-0.660221" gradientUnits="userSpaceOnUse">
<stop stop-color="#1A251F"/>
<stop offset="1" stop-color="#1B1227"/>
</linearGradient>
<linearGradient id="paint15_linear_128_1714" x1="5.51032" y1="-4.57067" x2="93.6322" y2="-0.660221" gradientUnits="userSpaceOnUse">
<stop stop-color="#1A251F"/>
<stop offset="1" stop-color="#1B1227"/>
</linearGradient>
<linearGradient id="paint16_linear_128_1714" x1="5.51032" y1="-4.57067" x2="93.6322" y2="-0.660221" gradientUnits="userSpaceOnUse">
<stop stop-color="#1A251F"/>
<stop offset="1" stop-color="#1B1227"/>
</linearGradient>
<linearGradient id="paint17_linear_128_1714" x1="5.51032" y1="-4.57067" x2="93.6322" y2="-0.660221" gradientUnits="userSpaceOnUse">
<stop stop-color="#1A251F"/>
<stop offset="1" stop-color="#1B1227"/>
</linearGradient>
<linearGradient id="paint18_linear_128_1714" x1="5.51032" y1="-4.57067" x2="93.6322" y2="-0.660221" gradientUnits="userSpaceOnUse">
<stop stop-color="#1A251F"/>
<stop offset="1" stop-color="#1B1227"/>
</linearGradient>
<linearGradient id="paint19_linear_128_1714" x1="5.51032" y1="-4.57067" x2="93.6322" y2="-0.660221" gradientUnits="userSpaceOnUse">
<stop stop-color="#1A251F"/>
<stop offset="1" stop-color="#1B1227"/>
</linearGradient>
<linearGradient id="paint20_linear_128_1714" x1="5.51032" y1="-4.57067" x2="93.6322" y2="-0.660221" gradientUnits="userSpaceOnUse">
<stop stop-color="#1A251F"/>
<stop offset="1" stop-color="#1B1227"/>
</linearGradient>
<clipPath id="clip0_128_1714">
<rect width="459.901" height="442.503" fill="white" transform="matrix(-4.20578e-08 -1 -1 4.54299e-08 442.503 460.355)"/>
</clipPath>
</defs>
</svg>
