<svg width="442" height="461" viewBox="0 0 442 461" fill="none" xmlns="http://www.w3.org/2000/svg">
<g clip-path="url(#clip0_107_1450)">
<rect x="88.501" y="460.933" width="92.0609" height="88.5007" transform="rotate(-90 88.501 460.933)" stroke="url(#paint0_linear_107_1450)" stroke-width="2"/>
<rect x="265.501" y="460.933" width="92.0609" height="88.5007" transform="rotate(-90 265.501 460.933)" stroke="url(#paint1_linear_107_1450)" stroke-width="2"/>
<rect x="177.001" y="460.933" width="92.0609" height="88.5007" transform="rotate(-90 177.001 460.933)" stroke="url(#paint2_linear_107_1450)" stroke-width="2"/>
<rect x="354.002" y="460.933" width="92.0609" height="88.5007" transform="rotate(-90 354.002 460.933)" stroke="url(#paint3_linear_107_1450)" stroke-width="2"/>
<rect y="460.933" width="92.0609" height="88.5007" transform="rotate(-90 0 460.933)" stroke="url(#paint4_linear_107_1450)" stroke-width="2"/>
<rect x="88.5" y="368.872" width="92.0609" height="88.5007" transform="rotate(-90 88.5 368.872)" stroke="url(#paint5_linear_107_1450)" stroke-width="2"/>
<rect x="265.501" y="368.872" width="92.0609" height="88.5007" transform="rotate(-90 265.501 368.872)" stroke="url(#paint6_linear_107_1450)" stroke-width="2"/>
<rect x="177.001" y="368.872" width="92.0609" height="88.5007" transform="rotate(-90 177.001 368.872)" stroke="url(#paint7_linear_107_1450)" stroke-width="2"/>
<rect x="354.002" y="368.872" width="92.0609" height="88.5007" transform="rotate(-90 354.002 368.872)" stroke="url(#paint8_linear_107_1450)" stroke-width="2"/>
<rect y="368.872" width="92.0609" height="88.5007" transform="rotate(-90 0 368.872)" stroke="url(#paint9_linear_107_1450)" stroke-width="2"/>
<rect x="88.5" y="276.811" width="92.0609" height="88.5007" transform="rotate(-90 88.5 276.811)" stroke="url(#paint10_linear_107_1450)" stroke-width="2"/>
<rect x="265.501" y="276.811" width="92.0609" height="88.5007" transform="rotate(-90 265.501 276.811)" stroke="url(#paint11_linear_107_1450)" stroke-width="2"/>
<rect x="177.001" y="276.811" width="92.0609" height="88.5007" transform="rotate(-90 177.001 276.811)" stroke="url(#paint12_linear_107_1450)" stroke-width="2"/>
<rect x="354.002" y="276.811" width="92.0609" height="88.5007" transform="rotate(-90 354.002 276.811)" stroke="url(#paint13_linear_107_1450)" stroke-width="2"/>
<rect y="276.811" width="92.0609" height="88.5007" transform="rotate(-90 0 276.811)" stroke="url(#paint14_linear_107_1450)" stroke-width="2"/>
<rect x="88.5" y="184.75" width="92.0609" height="88.5007" transform="rotate(-90 88.5 184.75)" stroke="url(#paint15_linear_107_1450)" stroke-width="2"/>
<rect x="88.5" y="92.689" width="92.0609" height="88.5007" transform="rotate(-90 88.5 92.689)" stroke="url(#paint16_linear_107_1450)" stroke-width="2"/>
<rect x="265.501" y="184.75" width="92.0609" height="88.5007" transform="rotate(-90 265.501 184.75)" stroke="url(#paint17_linear_107_1450)" stroke-width="2"/>
<rect x="177.001" y="184.75" width="92.0609" height="88.5007" transform="rotate(-90 177.001 184.75)" stroke="url(#paint18_linear_107_1450)" stroke-width="2"/>
<rect x="177.001" y="92.689" width="92.0609" height="88.5007" transform="rotate(-90 177.001 92.689)" stroke="url(#paint19_linear_107_1450)" stroke-width="2"/>
<rect y="184.75" width="92.0609" height="88.5007" transform="rotate(-90 0 184.75)" stroke="url(#paint20_linear_107_1450)" stroke-width="2"/>
</g>
<defs>
<linearGradient id="paint0_linear_107_1450" x1="94.0161" y1="456.362" x2="182.215" y2="460.279" gradientUnits="userSpaceOnUse">
<stop stop-color="#1A251F"/>
<stop offset="1" stop-color="#1B1227"/>
</linearGradient>
<linearGradient id="paint1_linear_107_1450" x1="271.016" y1="456.362" x2="359.215" y2="460.279" gradientUnits="userSpaceOnUse">
<stop stop-color="#1A251F"/>
<stop offset="1" stop-color="#1B1227"/>
</linearGradient>
<linearGradient id="paint2_linear_107_1450" x1="182.516" y1="456.362" x2="270.715" y2="460.279" gradientUnits="userSpaceOnUse">
<stop stop-color="#1A251F"/>
<stop offset="1" stop-color="#1B1227"/>
</linearGradient>
<linearGradient id="paint3_linear_107_1450" x1="359.517" y1="456.362" x2="447.716" y2="460.279" gradientUnits="userSpaceOnUse">
<stop stop-color="#1A251F"/>
<stop offset="1" stop-color="#1B1227"/>
</linearGradient>
<linearGradient id="paint4_linear_107_1450" x1="5.51515" y1="456.362" x2="93.7139" y2="460.279" gradientUnits="userSpaceOnUse">
<stop stop-color="#1A251F"/>
<stop offset="1" stop-color="#1B1227"/>
</linearGradient>
<linearGradient id="paint5_linear_107_1450" x1="94.0152" y1="364.301" x2="182.214" y2="368.218" gradientUnits="userSpaceOnUse">
<stop stop-color="#1A251F"/>
<stop offset="1" stop-color="#1B1227"/>
</linearGradient>
<linearGradient id="paint6_linear_107_1450" x1="271.016" y1="364.301" x2="359.215" y2="368.218" gradientUnits="userSpaceOnUse">
<stop stop-color="#1A251F"/>
<stop offset="1" stop-color="#1B1227"/>
</linearGradient>
<linearGradient id="paint7_linear_107_1450" x1="182.516" y1="364.301" x2="270.715" y2="368.218" gradientUnits="userSpaceOnUse">
<stop stop-color="#1A251F"/>
<stop offset="1" stop-color="#1B1227"/>
</linearGradient>
<linearGradient id="paint8_linear_107_1450" x1="359.517" y1="364.301" x2="447.716" y2="368.218" gradientUnits="userSpaceOnUse">
<stop stop-color="#1A251F"/>
<stop offset="1" stop-color="#1B1227"/>
</linearGradient>
<linearGradient id="paint9_linear_107_1450" x1="5.51515" y1="364.301" x2="93.7139" y2="368.218" gradientUnits="userSpaceOnUse">
<stop stop-color="#1A251F"/>
<stop offset="1" stop-color="#1B1227"/>
</linearGradient>
<linearGradient id="paint10_linear_107_1450" x1="94.0152" y1="272.24" x2="182.214" y2="276.157" gradientUnits="userSpaceOnUse">
<stop stop-color="#1A251F"/>
<stop offset="1" stop-color="#1B1227"/>
</linearGradient>
<linearGradient id="paint11_linear_107_1450" x1="271.016" y1="272.24" x2="359.215" y2="276.157" gradientUnits="userSpaceOnUse">
<stop stop-color="#1A251F"/>
<stop offset="1" stop-color="#1B1227"/>
</linearGradient>
<linearGradient id="paint12_linear_107_1450" x1="182.516" y1="272.24" x2="270.715" y2="276.157" gradientUnits="userSpaceOnUse">
<stop stop-color="#1A251F"/>
<stop offset="1" stop-color="#1B1227"/>
</linearGradient>
<linearGradient id="paint13_linear_107_1450" x1="359.517" y1="272.24" x2="447.716" y2="276.157" gradientUnits="userSpaceOnUse">
<stop stop-color="#1A251F"/>
<stop offset="1" stop-color="#1B1227"/>
</linearGradient>
<linearGradient id="paint14_linear_107_1450" x1="5.51515" y1="272.24" x2="93.7139" y2="276.157" gradientUnits="userSpaceOnUse">
<stop stop-color="#1A251F"/>
<stop offset="1" stop-color="#1B1227"/>
</linearGradient>
<linearGradient id="paint15_linear_107_1450" x1="94.0152" y1="180.179" x2="182.214" y2="184.097" gradientUnits="userSpaceOnUse">
<stop stop-color="#1A251F"/>
<stop offset="1" stop-color="#1B1227"/>
</linearGradient>
<linearGradient id="paint16_linear_107_1450" x1="94.0152" y1="88.1183" x2="182.214" y2="92.0356" gradientUnits="userSpaceOnUse">
<stop stop-color="#1A251F"/>
<stop offset="1" stop-color="#1B1227"/>
</linearGradient>
<linearGradient id="paint17_linear_107_1450" x1="271.016" y1="180.179" x2="359.215" y2="184.097" gradientUnits="userSpaceOnUse">
<stop stop-color="#1A251F"/>
<stop offset="1" stop-color="#1B1227"/>
</linearGradient>
<linearGradient id="paint18_linear_107_1450" x1="182.516" y1="180.179" x2="270.715" y2="184.097" gradientUnits="userSpaceOnUse">
<stop stop-color="#1A251F"/>
<stop offset="1" stop-color="#1B1227"/>
</linearGradient>
<linearGradient id="paint19_linear_107_1450" x1="182.516" y1="88.1183" x2="270.715" y2="92.0356" gradientUnits="userSpaceOnUse">
<stop stop-color="#1A251F"/>
<stop offset="1" stop-color="#1B1227"/>
</linearGradient>
<linearGradient id="paint20_linear_107_1450" x1="5.51515" y1="180.179" x2="93.7139" y2="184.097" gradientUnits="userSpaceOnUse">
<stop stop-color="#1A251F"/>
<stop offset="1" stop-color="#1B1227"/>
</linearGradient>
<clipPath id="clip0_107_1450">
<rect width="460.304" height="442.503" fill="white" transform="translate(0 460.933) rotate(-90)"/>
</clipPath>
</defs>
</svg>
