<svg xmlns="http://www.w3.org/2000/svg" width="56" height="56" viewBox="0 0 56 56" fill="none">
<rect width="56" height="56" rx="12" fill="white" fill-opacity="0.07"/>
<path d="M37.8599 24.4892C38.7466 23.8673 39.4916 23.0906 40.0991 22.1967V22.1954C39.2887 22.5467 38.4252 22.7796 37.5249 22.8927C38.4511 22.3462 39.1579 21.4873 39.4903 20.4521C38.6268 20.961 37.6733 21.3204 36.6573 21.521C35.8373 20.6594 34.6687 20.125 33.3938 20.125C30.9204 20.125 28.9291 22.1092 28.9291 24.5417C28.9291 24.8917 28.9591 25.2283 29.0326 25.5487C25.3184 25.3696 22.0318 23.6102 19.8239 20.93C19.4385 21.591 19.2124 22.3475 19.2124 23.1619C19.2124 24.6912 20.0092 26.0467 21.1969 26.8315C20.4791 26.8181 19.7749 26.6121 19.1783 26.2877V26.3362C19.1783 28.4819 20.727 30.2642 22.7578 30.6748C22.3941 30.7731 21.9977 30.8202 21.5864 30.8202C21.3004 30.8202 21.0116 30.804 20.7406 30.7448C21.3194 32.4935 22.9621 33.779 24.9152 33.8208C23.3952 34.996 21.4652 35.704 19.3758 35.704C19.0094 35.704 18.658 35.6879 18.3066 35.6435C20.2857 36.9048 22.6311 37.625 25.1604 37.625C33.0438 37.625 38.1827 31.1244 37.8599 24.4892Z" fill="white"/>
</svg>