<svg xmlns="http://www.w3.org/2000/svg" width="24" height="24" viewBox="0 0 24 24" fill="none">
<path d="M5.59607 13.2808C4.15764 12.5517 2.44335 12.2364 6.57171e-06 12.0985C6.57515e-06 12.0591 6.57688e-06 12.0394 6.58032e-06 12C6.58377e-06 11.9606 6.58549e-06 11.9409 6.58893e-06 11.9015C2.44335 11.7635 4.13794 11.468 5.59607 10.7192C7.80296 9.59606 9.59606 7.80295 10.7192 5.59606C11.4483 4.15763 11.7636 2.44335 11.9015 -1.05769e-06C11.9409 -1.05424e-06 11.9606 -1.05252e-06 12 -1.04907e-06C12.0394 -1.04563e-06 12.0591 -1.04391e-06 12.0985 -1.04046e-06C12.2365 2.44335 12.532 4.13793 13.2808 5.59606C14.4039 7.80295 16.197 9.59606 18.4039 10.7192C19.8424 11.4483 21.5567 11.7635 24 11.9015C24 11.9409 24 11.9606 24 12C24 12.0394 24 12.0591 24 12.0985C21.5567 12.2365 19.8621 12.532 18.4039 13.2808C16.197 14.4039 14.4039 16.197 13.2808 18.4039C12.5517 19.8424 12.2365 21.5566 12.0985 24C12.0591 24 12.0394 24 12 24C11.9606 24 11.9409 24 11.9015 24C11.7635 21.5566 11.4483 19.8621 10.7192 18.4039C9.59606 16.197 7.80296 14.4039 5.59607 13.2808Z" fill="white" fill-opacity="0.3"/>
</svg>