<svg width="24" height="25" viewBox="0 0 24 25" fill="none" xmlns="http://www.w3.org/2000/svg">
<path d="M1.23047 22.77L15.2305 17.77L6.23047 8.76998L1.23047 22.77Z" fill="url(#paint0_linear_545_1605)"/>
<path d="M13.7605 13.3L19.3505 7.70998C19.8405 7.21998 20.6305 7.21998 21.1205 7.70998L21.7105 8.29998L22.7705 7.23998L22.1805 6.64998C21.1105 5.57998 19.3605 5.57998 18.2905 6.64998L12.7005 12.24L13.7605 13.3Z" fill="url(#paint1_linear_545_1605)"/>
<path d="M9.29047 7.64998L8.70047 8.23998L9.76047 9.29998L10.3505 8.70998C11.4205 7.63998 11.4205 5.88998 10.3505 4.81998L9.76047 4.22998L8.70047 5.29998L9.29047 5.88998C9.77047 6.36998 9.77047 7.16998 9.29047 7.64998Z" fill="url(#paint2_linear_545_1605)"/>
<path d="M16.2905 12.65L14.7005 14.24L15.7605 15.3L17.3505 13.71C17.8405 13.22 18.6305 13.22 19.1205 13.71L20.7305 15.32L21.7905 14.26L20.1805 12.65C19.1005 11.58 17.3605 11.58 16.2905 12.65Z" fill="url(#paint3_linear_545_1605)"/>
<path d="M14.2905 6.64998L10.7005 10.24L11.7605 11.3L15.3505 7.70998C16.4205 6.63998 16.4205 4.88998 15.3505 3.81998L13.7605 2.22998L12.7005 3.28998L14.2905 4.87998C14.7705 5.36998 14.7705 6.16998 14.2905 6.64998Z" fill="url(#paint4_linear_545_1605)"/>
<defs>
<linearGradient id="paint0_linear_545_1605" x1="12.3598" y1="1.23537" x2="30.5872" y2="18.9723" gradientUnits="userSpaceOnUse">
<stop stop-color="#B0FF09"/>
<stop offset="1" stop-color="#05B8F1"/>
</linearGradient>
<linearGradient id="paint1_linear_545_1605" x1="12.3598" y1="1.23537" x2="30.5872" y2="18.9723" gradientUnits="userSpaceOnUse">
<stop stop-color="#B0FF09"/>
<stop offset="1" stop-color="#05B8F1"/>
</linearGradient>
<linearGradient id="paint2_linear_545_1605" x1="12.3598" y1="1.23537" x2="30.5872" y2="18.9723" gradientUnits="userSpaceOnUse">
<stop stop-color="#B0FF09"/>
<stop offset="1" stop-color="#05B8F1"/>
</linearGradient>
<linearGradient id="paint3_linear_545_1605" x1="12.3598" y1="1.23537" x2="30.5872" y2="18.9723" gradientUnits="userSpaceOnUse">
<stop stop-color="#B0FF09"/>
<stop offset="1" stop-color="#05B8F1"/>
</linearGradient>
<linearGradient id="paint4_linear_545_1605" x1="12.3598" y1="1.23537" x2="30.5872" y2="18.9723" gradientUnits="userSpaceOnUse">
<stop stop-color="#B0FF09"/>
<stop offset="1" stop-color="#05B8F1"/>
</linearGradient>
</defs>
</svg>
