<svg width="97" height="53" viewBox="0 0 97 53" fill="none" xmlns="http://www.w3.org/2000/svg">
<g id="Frame 48095886">
<g id="Group 48095880">
<g id="Vector">
<path d="M18.0352 49.0853H12.0932C11.0818 49.0853 10.3064 48.7482 9.76702 48.0739C9.2276 47.3997 9.05061 46.5484 9.23603 45.5202L11.2083 34.243C11.3937 33.1979 11.8741 32.3467 12.6495 31.6893C13.4249 31.015 14.3183 30.6779 15.3297 30.6779H21.2717C22.2831 30.6779 23.0585 31.015 23.5979 31.6893C24.1373 32.3635 24.3143 33.2148 24.1289 34.243L23.5473 37.5301H19.2995L19.7293 35.2039C19.7799 34.8667 19.645 34.6982 19.3248 34.6982H15.8607C15.5404 34.6982 15.355 34.8667 15.3044 35.2039L13.6356 44.5593C13.5851 44.8965 13.7199 45.065 14.0402 45.065H17.5042C17.8245 45.065 18.0099 44.8965 18.0605 44.5593L18.4903 42.2331H22.7382L22.1567 45.5202C21.9713 46.5484 21.4908 47.4081 20.7154 48.0992C19.94 48.7566 19.0466 49.0853 18.0352 49.0853Z" fill="white"/>
<path d="M33.6515 45.2926H28.5186L26.9257 48.9842H22.3996L31.0977 30.779H36.0536L38.4051 48.9842H33.9802L33.6515 45.2926ZM33.2975 41.2723L32.7665 35.4567L30.2633 41.2723H33.2975Z" fill="white"/>
<path d="M50.6071 36.5693L50.8599 35.1533C50.9273 34.8499 50.8009 34.6982 50.4806 34.6982H47.1936C46.8733 34.6982 46.6879 34.8499 46.6373 35.1533L46.3339 36.9738C46.2833 37.2267 46.4182 37.3868 46.7384 37.4542L51.1633 38.4151C53.4558 38.8871 54.4335 40.1007 54.0964 42.0561L53.4643 45.5202C53.2788 46.5484 52.7984 47.4081 52.023 48.0992C51.2476 48.7566 50.3542 49.0853 49.3428 49.0853H43.4514C42.44 49.0853 41.6646 48.7482 41.1252 48.0739C40.5858 47.3997 40.4088 46.5484 40.5942 45.5202L41.024 43.0169H45.1202L44.8421 44.6099C44.7915 44.9133 44.9348 45.065 45.2719 45.065H48.8118C49.1321 45.065 49.3175 44.9133 49.3681 44.6099L49.6968 42.6377C49.7474 42.4017 49.6125 42.25 49.2922 42.1825L44.8674 41.1964C42.5917 40.6907 41.6224 39.477 41.9596 37.5554L42.5411 34.243C42.7097 33.2148 43.1817 32.3635 43.9571 31.6893C44.7325 31.015 45.6343 30.6779 46.6626 30.6779H52.2506C53.262 30.6779 54.0374 31.015 54.5768 31.6893C55.1331 32.3635 55.3185 33.2148 55.1331 34.243L54.7285 36.5693H50.6071Z" fill="white"/>
<path d="M55.6471 48.9842L58.833 30.779H63.0809L59.8949 48.9842H55.6471Z" fill="white"/>
<path d="M76.7992 30.779H80.7942L77.6083 48.9842H73.234L69.4665 37.7324L67.4943 48.9842H63.4992L66.6852 30.779H71.0847L74.8269 42.0561L76.7992 30.779Z" fill="white"/>
<path d="M90.7861 49.0853H84.5407C83.5293 49.0853 82.7539 48.7482 82.2145 48.0739C81.6751 47.3997 81.4981 46.5484 81.6835 45.5202L83.6557 34.243C83.8412 33.1979 84.3216 32.3467 85.097 31.6893C85.8724 31.015 86.7658 30.6779 87.7772 30.6779H94.0226C95.0509 30.6779 95.8263 31.015 96.3488 31.6893C96.8882 32.3467 97.0652 33.1979 96.8798 34.243L94.9076 45.5202C94.7221 46.5484 94.2417 47.4081 93.4663 48.0992C92.7078 48.7566 91.8144 49.0853 90.7861 49.0853ZM87.7519 35.2039L86.0831 44.5593C86.0325 44.8965 86.1674 45.065 86.4877 45.065H90.2804C90.5838 45.065 90.7608 44.8965 90.8114 44.5593L92.4802 35.2039C92.5308 34.8667 92.4044 34.6982 92.1009 34.6982H88.3082C87.9879 34.6982 87.8025 34.8667 87.7519 35.2039Z" fill="white"/>
<path d="M10.4287 12.5379L10.6816 11.1219C10.749 10.8185 10.6226 10.6668 10.3023 10.6668H7.01527C6.69499 10.6668 6.50956 10.8185 6.45899 11.1219L6.15557 12.9425C6.105 13.1953 6.23986 13.3554 6.56014 13.4229L10.985 14.3837C13.2775 14.8557 14.2552 16.0694 13.9181 18.0247L13.2859 21.4888C13.1005 22.517 12.6201 23.3767 11.8447 24.0679C11.0693 24.7253 10.1759 25.054 9.16449 25.054H3.27308C2.26168 25.054 1.48628 24.7168 0.946863 24.0426C0.407449 23.3683 0.230454 22.517 0.415877 21.4888L0.845723 18.9856H4.94189L4.66376 20.5785C4.61319 20.8819 4.75647 21.0337 5.0936 21.0337H8.63351C8.95378 21.0337 9.13921 20.8819 9.18978 20.5785L9.51848 18.6063C9.56905 18.3703 9.4342 18.2186 9.11392 18.1512L4.68904 17.165C2.41339 16.6593 1.44413 15.4457 1.78127 13.524L2.36282 10.2117C2.53139 9.18341 3.00338 8.33215 3.77878 7.65789C4.55419 6.98362 5.45602 6.64648 6.48428 6.64648H12.0723C13.0837 6.64648 13.8591 6.98362 14.3985 7.65789C14.9548 8.33215 15.1402 9.18341 14.9548 10.2117L14.5502 12.5379H10.4287Z" fill="url(#paint0_linear_47_31)"/>
<path d="M18.6547 6.74762H28.0607C29.0721 6.74762 29.8475 7.08476 30.3869 7.75903C30.9263 8.43329 31.1117 9.28455 30.9432 10.3128L30.0835 15.1928C29.9149 16.2379 29.4345 17.0976 28.6422 17.7719C27.85 18.4293 26.9566 18.758 25.962 18.758H20.8039L19.7166 24.9528H15.4688L18.6547 6.74762ZM21.5119 14.7377H25.431C25.7513 14.7377 25.9368 14.5691 25.9873 14.232L26.5183 11.2736C26.5689 10.9365 26.434 10.7679 26.1137 10.7679H22.1946L21.5119 14.7377Z" fill="url(#paint1_linear_47_31)"/>
<path d="M34.1368 6.74762H38.3847L35.9067 20.9325H42.9613L42.2533 24.9528H30.9509L34.1368 6.74762Z" fill="url(#paint2_linear_47_31)"/>
<path d="M44.6305 24.9528L47.8164 6.74762H52.0643L48.8783 24.9528H44.6305Z" fill="url(#paint3_linear_47_31)"/>
<path d="M66.794 10.7174H62.3944L59.8912 24.9528H55.6433L58.1465 10.7174H53.7469L54.4296 6.74762H67.4767L66.794 10.7174Z" fill="url(#paint4_linear_47_31)"/>
</g>
</g>
<path id="Vector_2" d="M76.6233 15.186C75.1358 14.432 73.3629 14.106 70.836 13.9634C70.836 13.9226 70.836 13.9022 70.836 13.8615C70.836 13.8207 70.836 13.8003 70.836 13.7596C73.3629 13.6169 75.1154 13.3113 76.6233 12.5369C78.9057 11.3754 80.76 9.52098 81.9216 7.23866C82.6756 5.75108 83.0016 3.97821 83.1443 1.45135C83.185 1.45135 83.2054 1.45135 83.2461 1.45135C83.2869 1.45135 83.3073 1.45135 83.348 1.45135C83.4907 3.97821 83.7963 5.7307 84.5707 7.23866C85.7322 9.52098 87.5866 11.3754 89.8689 12.5369C91.3565 13.2909 93.1294 13.6169 95.6562 13.7596C95.6562 13.8003 95.6562 13.8207 95.6562 13.8615C95.6562 13.9022 95.6562 13.9226 95.6562 13.9634C93.1294 14.106 91.3769 14.4117 89.8689 15.186C87.5866 16.3476 85.7322 18.2019 84.5707 20.4843C83.8167 21.9718 83.4907 23.7447 83.348 26.2716C83.3073 26.2716 83.2869 26.2716 83.2461 26.2716C83.2054 26.2716 83.185 26.2716 83.1442 26.2716C83.0016 23.7447 82.6756 21.9922 81.9216 20.4843C80.76 18.2019 78.9057 16.3476 76.6233 15.186Z" fill="url(#paint5_linear_47_31)"/>
</g>
<defs>
<linearGradient id="paint0_linear_47_31" x1="13.7115" y1="10.5073" x2="88.2088" y2="19.8603" gradientUnits="userSpaceOnUse">
<stop stop-color="#AA1327"/>
<stop offset="1" stop-color="#FF465E"/>
</linearGradient>
<linearGradient id="paint1_linear_47_31" x1="13.7115" y1="10.5073" x2="88.2088" y2="19.8603" gradientUnits="userSpaceOnUse">
<stop stop-color="#AA1327"/>
<stop offset="1" stop-color="#FF465E"/>
</linearGradient>
<linearGradient id="paint2_linear_47_31" x1="13.7115" y1="10.5073" x2="88.2088" y2="19.8603" gradientUnits="userSpaceOnUse">
<stop stop-color="#AA1327"/>
<stop offset="1" stop-color="#FF465E"/>
</linearGradient>
<linearGradient id="paint3_linear_47_31" x1="13.7115" y1="10.5073" x2="88.2088" y2="19.8603" gradientUnits="userSpaceOnUse">
<stop stop-color="#AA1327"/>
<stop offset="1" stop-color="#FF465E"/>
</linearGradient>
<linearGradient id="paint4_linear_47_31" x1="13.7115" y1="10.5073" x2="88.2088" y2="19.8603" gradientUnits="userSpaceOnUse">
<stop stop-color="#AA1327"/>
<stop offset="1" stop-color="#FF465E"/>
</linearGradient>
<linearGradient id="paint5_linear_47_31" x1="82.832" y1="0.249488" x2="60.8597" y2="20.638" gradientUnits="userSpaceOnUse">
<stop stop-color="#B0FF09"/>
<stop offset="1" stop-color="#05B8F1"/>
</linearGradient>
</defs>
</svg>
