<svg xmlns="http://www.w3.org/2000/svg" width="20" height="20" viewBox="0 0 20 20" fill="none">
<path d="M4.66339 11.0673C3.4647 10.4598 2.03613 10.197 1.02594e-06 10.0821C1.02881e-06 10.0493 1.03025e-06 10.0328 1.03312e-06 10C1.03599e-06 9.96716 1.03743e-06 9.95074 1.0403e-06 9.9179C2.03613 9.80295 3.44828 9.55665 4.66339 8.93267C6.50247 7.99671 7.99672 6.50246 8.93268 4.66338C9.54023 3.4647 9.80296 2.03612 9.9179 -8.81405e-07C9.95074 -8.78534e-07 9.96716 -8.77099e-07 10 -8.74228e-07C10.0328 -8.71357e-07 10.0493 -8.69921e-07 10.0821 -8.6705e-07C10.197 2.03612 10.4434 3.44827 11.0673 4.66338C12.0033 6.50246 13.4975 7.99671 15.3366 8.93267C16.5353 9.54023 17.9639 9.80295 20 9.9179C20 9.95074 20 9.96716 20 10C20 10.0328 20 10.0493 20 10.0821C17.9639 10.197 16.5517 10.4433 15.3366 11.0673C13.4975 12.0033 12.0033 13.4975 11.0673 15.3366C10.4598 16.5353 10.197 17.9639 10.0821 20C10.0493 20 10.0328 20 10 20C9.96716 20 9.95074 20 9.9179 20C9.80296 17.9639 9.54023 16.5517 8.93268 15.3366C7.99672 13.4975 6.50247 12.0033 4.66339 11.0673Z" fill="url(#paint0_linear_97_1385)"/>
<defs>
<linearGradient id="paint0_linear_97_1385" x1="18.8018" y1="-1.03291" x2="-0.36199" y2="-0.214678" gradientUnits="userSpaceOnUse">
<stop stop-color="#1A251F"/>
<stop offset="1" stop-color="#1B1227"/>
</linearGradient>
</defs>
</svg>