<svg xmlns="http://www.w3.org/2000/svg" width="24" height="25" viewBox="0 0 24 25" fill="none">
<path d="M20.5 18.5V19.5C20.5 20.6 19.6 21.5 18.5 21.5H4.5C3.39 21.5 2.5 20.6 2.5 19.5V5.5C2.5 4.4 3.39 3.5 4.5 3.5H18.5C19.6 3.5 20.5 4.4 20.5 5.5V6.5H11.5C10.39 6.5 9.5 7.4 9.5 8.5V16.5C9.5 17.6 10.39 18.5 11.5 18.5H20.5ZM11.5 16.5H21.5V8.5H11.5V16.5ZM15.5 14C14.67 14 14 13.33 14 12.5C14 11.67 14.67 11 15.5 11C16.33 11 17 11.67 17 12.5C17 13.33 16.33 14 15.5 14Z" fill="url(#paint0_linear_128_1744)"/>
<defs>
<linearGradient id="paint0_linear_128_1744" x1="12.317" y1="2.62839" x2="28.2928" y2="18.2762" gradientUnits="userSpaceOnUse">
<stop stop-color="#B0FF09"/>
<stop offset="1" stop-color="#05B8F1"/>
</linearGradient>
</defs>
</svg>