<svg xmlns="http://www.w3.org/2000/svg" width="26" height="30" viewBox="0 0 26 30" fill="none">
  <g filter="url(#filter0_d_128_1710)">
    <path d="M20 5.5H18V3.5H8V5.5H6C4.9 5.5 4 6.4 4 7.5V8.5C4 11.05 5.92 13.13 8.39 13.44C9.02 14.94 10.37 16.07 12 16.4V19.5H8V21.5H18V19.5H14V16.4C15.63 16.07 16.98 14.94 17.61 13.44C20.08 13.13 22 11.05 22 8.5V7.5C22 6.4 21.1 5.5 20 5.5ZM6 8.5V7.5H8V11.32C6.84 10.9 6 9.8 6 8.5ZM13 14.5C11.35 14.5 10 13.15 10 11.5V5.5H16V11.5C16 13.15 14.65 14.5 13 14.5ZM20 8.5C20 9.8 19.16 10.9 18 11.32V7.5H20V8.5Z" fill="url(#paint0_diamond_128_1710)"/>
  </g>
  <defs>
    <filter id="filter0_d_128_1710" x="-3" y="0.5" width="32" height="32" filterUnits="userSpaceOnUse" color-interpolation-filters="sRGB">
      <feFlood flood-opacity="0" result="BackgroundImageFix"/>
      <feColorMatrix in="SourceAlpha" type="matrix" values="0 0 0 0 0 0 0 0 0 0 0 0 0 0 0 0 0 0 127 0" result="hardAlpha"/>
      <feOffset dy="4"/>
      <feGaussianBlur stdDeviation="2"/>
      <feComposite in2="hardAlpha" operator="out"/>
      <feColorMatrix type="matrix" values="0 0 0 0 0 0 0 0 0 0 0 0 0 0 0 0 0 0 0.25 0"/>
      <feBlend mode="normal" in2="BackgroundImageFix" result="effect1_dropShadow_128_1710"/>
      <feBlend mode="normal" in="SourceGraphic" in2="effect1_dropShadow_128_1710" result="shape"/>
    </filter>
    <radialGradient id="paint0_diamond_128_1710" cx="0" cy="0" r="1" gradientUnits="userSpaceOnUse" gradientTransform="translate(5.20088 1.06091) rotate(48.0276) scale(26.582 22.5063)">
      <stop stop-color="#FFE2A4"/>
      <stop offset="0.631329" stop-color="#FFB81F"/>
      <stop offset="1" stop-color="#FFE2A4"/>
    </radialGradient>
  </defs>
</svg>