<svg width="208" height="56" viewBox="0 0 208 56" fill="none" xmlns="http://www.w3.org/2000/svg">
<rect width="208" height="56" rx="12" transform="matrix(1 0 0 -1 0 56)" fill="white" fill-opacity="0.07"/>
<path d="M45.2118 33.5H42.4038L40.4598 25.724L38.5338 33.5H35.5818L32.4678 20.54H35.7078L37.1118 29.432L39.2898 20.54H41.6298L43.8258 29.432L45.2298 20.54H48.3258L45.2118 33.5ZM49.8951 33.5V20.54H52.9191V25.436H56.7171V20.54H59.7411V33.5H56.7171V28.316H52.9191V33.5H49.8951ZM62.3931 33.5V20.54H65.4171V33.5H62.3931ZM76.6388 23.366H73.4168V33.5H70.3928V23.366H67.1708V20.54H76.6388V23.366ZM78.354 20.54H86.994V23.402H81.378V25.436H85.86V28.316H81.378V30.638H86.994V33.5H78.354V20.54ZM89.1294 20.54H95.9334C96.6654 20.54 97.2714 20.78 97.7514 21.26C98.2314 21.74 98.4714 22.346 98.4714 23.078V26.552C98.4714 27.296 98.2314 27.908 97.7514 28.388C97.2714 28.856 96.6654 29.09 95.9334 29.09H92.1534V33.5H89.1294V20.54ZM92.1534 26.228H95.0694C95.3214 26.228 95.4474 26.108 95.4474 25.868V23.762C95.4474 23.522 95.3214 23.402 95.0694 23.402H92.1534V26.228ZM106.069 30.872H102.289L101.569 33.5H98.4373L102.469 20.54H105.997L110.029 33.5H106.771L106.069 30.872ZM105.313 28.01L104.215 23.87L103.081 28.01H105.313ZM111.559 20.54H118.363C119.095 20.54 119.701 20.78 120.181 21.26C120.661 21.74 120.901 22.346 120.901 23.078V26.552C120.901 27.296 120.661 27.908 120.181 28.388C119.701 28.856 119.095 29.09 118.363 29.09H114.583V33.5H111.559V20.54ZM114.583 26.228H117.499C117.751 26.228 117.877 26.108 117.877 25.868V23.762C117.877 23.522 117.751 23.402 117.499 23.402H114.583V26.228ZM122.651 20.54H131.291V23.402H125.675V25.436H130.157V28.316H125.675V30.638H131.291V33.5H122.651V20.54ZM143.146 33.5H139.906L138.052 28.892H136.45V33.5H133.426V20.54H140.212C140.956 20.54 141.562 20.78 142.03 21.26C142.51 21.74 142.75 22.346 142.75 23.078V26.336C142.75 26.888 142.606 27.38 142.318 27.812C142.042 28.232 141.664 28.532 141.184 28.712L143.146 33.5ZM139.726 25.706V23.762C139.726 23.522 139.6 23.402 139.348 23.402H136.45V26.066H139.348C139.6 26.066 139.726 25.946 139.726 25.706Z" fill="white"/>
<path d="M169.625 37H157.25C156.007 37 155 35.9926 155 34.75V22.375C155 21.1324 156.007 20.125 157.25 20.125H161.75V22.375H157.25V34.75H169.625V30.25H171.875V34.75C171.875 35.9926 170.868 37 169.625 37ZM163.663 29.9204L162.076 28.3296L169.156 21.25H165.125V19H173V26.875H170.75V22.8419L163.663 29.9204Z" fill="white"/>
</svg>
